<svg width="200" height="200" xmlns="http://www.w3.org/2000/svg">
  <defs>
    <linearGradient id="oliveGradient" x1="0%" y1="0%" x2="100%" y2="100%">
      <stop offset="0%" style="stop-color:#556B2F;stop-opacity:1" />
      <stop offset="30%" style="stop-color:#6B8E23;stop-opacity:1" />
      <stop offset="60%" style="stop-color:#808000;stop-opacity:1" />
      <stop offset="100%" style="stop-color:#9ACD32;stop-opacity:1" />
    </linearGradient>
    
    <filter id="leafShadow" x="-50%" y="-50%" width="200%" height="200%">
      <feDropShadow dx="2" dy="2" stdDeviation="3" flood-color="#2F4F2F" flood-opacity="0.3"/>
    </filter>
  </defs>
  
  <!-- Main leaf shape -->
  <path d="M100,20 C120,40 140,60 150,80 C160,100 150,120 130,140 C110,160 90,150 80,130 C70,110 80,90 100,70 C90,50 80,30 100,20 Z" 
        fill="url(#oliveGradient)" filter="url(#leafShadow)"/>
  
  <!-- Leaf vein -->
  <path d="M100,20 L100,140" stroke="#2F4F2F" stroke-width="2" opacity="0.6"/>
  
  <!-- Side veins -->
  <path d="M100,40 Q120,50 130,60" stroke="#2F4F2F" stroke-width="1" opacity="0.4" fill="none"/>
  <path d="M100,60 Q120,70 125,80" stroke="#2F4F2F" stroke-width="1" opacity="0.4" fill="none"/>
  <path d="M100,80 Q120,90 125,100" stroke="#2F4F2F" stroke-width="1" opacity="0.4" fill="none"/>
  <path d="M100,100 Q120,110 125,120" stroke="#2F4F2F" stroke-width="1" opacity="0.4" fill="none"/>
  
  <!-- Stem -->
  <line x1="100" y1="140" x2="100" y2="160" stroke="#8B4513" stroke-width="3" opacity="0.8"/>
  
  <!-- Small decorative elements -->
  <circle cx="110" cy="50" r="2" fill="#9ACD32" opacity="0.7"/>
  <circle cx="90" cy="80" r="1.5" fill="#9ACD32" opacity="0.6"/>
  <circle cx="115" cy="100" r="1" fill="#9ACD32" opacity="0.5"/>
</svg>
