<svg width="400" height="300" viewBox="0 0 400 300" xmlns="http://www.w3.org/2000/svg">
  <!-- Cielo -->
  <rect width="400" height="100" fill="#bfdbfe"/>
  
  <!-- Edificio principal -->
  <rect x="50" y="100" width="300" height="150" fill="#f5f5f4"/>
  <rect x="60" y="110" width="280" height="130" fill="#ffffff"/>
  
  <!-- Entrada principal -->
  <rect x="150" y="180" width="100" height="70" fill="#374151"/>
  <rect x="160" y="190" width="80" height="50" fill="#4b5563"/>
  
  <!-- Letrero Marlett -->
  <rect x="120" y="130" width="160" height="30" fill="#1f2937"/>
  <text x="200" y="150" text-anchor="middle" font-family="Arial, sans-serif" font-size="18" font-weight="bold" fill="#fbbf24">
    Marlett
  </text>
  <text x="200" y="165" text-anchor="middle" font-family="Arial, sans-serif" font-size="10" fill="#d6d3d1">
    RESTAURANTE
  </text>
  
  <!-- Ventanas -->
  <rect x="80" y="120" width="30" height="40" fill="#e0f2fe" stroke="#0891b2" stroke-width="1"/>
  <rect x="290" y="120" width="30" height="40" fill="#e0f2fe" stroke="#0891b2" stroke-width="1"/>
  
  <!-- Jardín frontal -->
  <ellipse cx="100" cy="260" rx="30" ry="15" fill="#059669"/>
  <ellipse cx="200" cy="270" rx="40" ry="20" fill="#10b981"/>
  <ellipse cx="300" cy="260" rx="30" ry="15" fill="#059669"/>
  
  <!-- Palmeras -->
  <rect x="70" y="240" width="6" height="30" fill="#78716c"/>
  <circle cx="73" cy="235" r="12" fill="#059669"/>
  
  <rect x="320" y="240" width="6" height="30" fill="#78716c"/>
  <circle cx="323" cy="235" r="12" fill="#059669"/>
  
  <!-- Camino -->
  <rect x="0" y="280" width="400" height="20" fill="#a8a29e"/>
  <rect x="0" y="285" width="400" height="2" fill="#78716c"/>
  <rect x="0" y="292" width="400" height="2" fill="#78716c"/>
  
  <!-- Texto -->
  <text x="200" y="50" text-anchor="middle" font-family="Arial, sans-serif" font-size="14" font-weight="bold" fill="#374151">
    Restaurante Marlett
  </text>
  <text x="200" y="70" text-anchor="middle" font-family="Arial, sans-serif" font-size="10" fill="#6b7280">
    Fachada exterior moderna
  </text>
</svg>
