<svg width="400" height="300" viewBox="0 0 400 300" xmlns="http://www.w3.org/2000/svg">
  <!-- Fondo -->
  <rect width="400" height="300" fill="#f5f5f4"/>
  
  <!-- Arcos decorativos -->
  <path d="M50 80 Q100 40 150 80" stroke="#78716c" stroke-width="4" fill="none"/>
  <path d="M150 80 Q200 40 250 80" stroke="#78716c" stroke-width="4" fill="none"/>
  <path d="M250 80 Q300 40 350 80" stroke="#78716c" stroke-width="4" fill="none"/>
  
  <!-- Columnas -->
  <rect x="90" y="80" width="20" height="120" fill="#a8a29e"/>
  <rect x="190" y="80" width="20" height="120" fill="#a8a29e"/>
  <rect x="290" y="80" width="20" height="120" fill="#a8a29e"/>
  
  <!-- Mesas redondas -->
  <circle cx="120" cy="150" r="25" fill="#ffffff" stroke="#d6d3d1" stroke-width="2"/>
  <circle cx="200" cy="150" r="25" fill="#ffffff" stroke="#d6d3d1" stroke-width="2"/>
  <circle cx="280" cy="150" r="25" fill="#ffffff" stroke="#d6d3d1" stroke-width="2"/>
  
  <!-- Sillas -->
  <circle cx="105" cy="135" r="6" fill="#6b7280"/>
  <circle cx="135" cy="135" r="6" fill="#6b7280"/>
  <circle cx="105" cy="165" r="6" fill="#6b7280"/>
  <circle cx="135" cy="165" r="6" fill="#6b7280"/>
  
  <circle cx="185" cy="135" r="6" fill="#6b7280"/>
  <circle cx="215" cy="135" r="6" fill="#6b7280"/>
  <circle cx="185" cy="165" r="6" fill="#6b7280"/>
  <circle cx="215" cy="165" r="6" fill="#6b7280"/>
  
  <circle cx="265" cy="135" r="6" fill="#6b7280"/>
  <circle cx="295" cy="135" r="6" fill="#6b7280"/>
  <circle cx="265" cy="165" r="6" fill="#6b7280"/>
  <circle cx="295" cy="165" r="6" fill="#6b7280"/>
  
  <!-- Plantas decorativas -->
  <circle cx="40" cy="120" r="12" fill="#059669"/>
  <circle cx="360" cy="120" r="12" fill="#059669"/>
  
  <!-- Iluminación -->
  <circle cx="120" cy="30" r="6" fill="#fbbf24"/>
  <circle cx="200" cy="30" r="6" fill="#fbbf24"/>
  <circle cx="280" cy="30" r="6" fill="#fbbf24"/>
  
  <!-- Texto -->
  <text x="200" y="240" text-anchor="middle" font-family="Arial, sans-serif" font-size="16" font-weight="bold" fill="#374151">
    Salón de Eventos
  </text>
  <text x="200" y="260" text-anchor="middle" font-family="Arial, sans-serif" font-size="12" fill="#6b7280">
    Configuración flexible con arcos decorativos
  </text>
</svg>
