<svg width="400" height="300" viewBox="0 0 400 300" xmlns="http://www.w3.org/2000/svg">
  <!-- Fondo -->
  <rect width="400" height="300" fill="#f5f5f4"/>
  
  <!-- Ventanas grandes -->
  <rect x="20" y="40" width="80" height="120" fill="#e0f2fe" stroke="#0891b2" stroke-width="2"/>
  <rect x="300" y="40" width="80" height="120" fill="#e0f2fe" stroke="#0891b2" stroke-width="2"/>
  
  <!-- Mesa ejecutiva central -->
  <ellipse cx="200" cy="150" rx="80" ry="40" fill="#78716c"/>
  <ellipse cx="200" cy="148" rx="75" ry="35" fill="#a8a29e"/>
  
  <!-- Sillas ejecutivas -->
  <rect x="130" y="130" width="15" height="20" fill="#374151"/>
  <rect x="150" y="130" width="15" height="20" fill="#374151"/>
  <rect x="170" y="130" width="15" height="20" fill="#374151"/>
  <rect x="215" y="130" width="15" height="20" fill="#374151"/>
  <rect x="235" y="130" width="15" height="20" fill="#374151"/>
  <rect x="255" y="130" width="15" height="20" fill="#374151"/>
  
  <rect x="130" y="170" width="15" height="20" fill="#374151"/>
  <rect x="150" y="170" width="15" height="20" fill="#374151"/>
  <rect x="170" y="170" width="15" height="20" fill="#374151"/>
  <rect x="215" y="170" width="15" height="20" fill="#374151"/>
  <rect x="235" y="170" width="15" height="20" fill="#374151"/>
  <rect x="255" y="170" width="15" height="20" fill="#374151"/>
  
  <!-- Proyector en techo -->
  <rect x="180" y="20" width="40" height="15" fill="#374151"/>
  <circle cx="200" cy="27" r="4" fill="#fbbf24"/>
  
  <!-- TV en pared -->
  <rect x="120" y="200" width="160" height="90" fill="#1f2937"/>
  <rect x="130" y="210" width="140" height="70" fill="#374151"/>
  
  <!-- Plantas premium -->
  <circle cx="350" cy="200" r="20" fill="#059669"/>
  <circle cx="50" cy="200" r="20" fill="#059669"/>
  
  <!-- Iluminación LED premium -->
  <rect x="0" y="10" width="400" height="6" fill="#fbbf24"/>
  <circle cx="100" cy="25" r="5" fill="#f59e0b"/>
  <circle cx="200" cy="25" r="5" fill="#f59e0b"/>
  <circle cx="300" cy="25" r="5" fill="#f59e0b"/>
  
  <!-- Texto -->
  <text x="200" y="260" text-anchor="middle" font-family="Arial, sans-serif" font-size="16" font-weight="bold" fill="#374151">
    Salón Ejecutivo Premium
  </text>
  <text x="200" y="280" text-anchor="middle" font-family="Arial, sans-serif" font-size="12" fill="#6b7280">
    Con proyector multimedia y mobiliario premium
  </text>
</svg>
