<svg width="400" height="300" viewBox="0 0 400 300" xmlns="http://www.w3.org/2000/svg">
  <!-- Fondo -->
  <rect width="400" height="300" fill="#f5f5f4"/>
  
  <!-- Escenario/Podium -->
  <rect x="50" y="50" width="300" height="60" fill="#374151"/>
  <rect x="60" y="60" width="280" height="40" fill="#4b5563"/>
  
  <!-- Pantalla/Proyector -->
  <rect x="150" y="70" width="100" height="60" fill="#1f2937"/>
  <rect x="160" y="80" width="80" height="40" fill="#374151"/>
  
  <!-- Filas de sillas tipo auditorio -->
  <!-- Fila 1 -->
  <rect x="80" y="140" width="12" height="12" fill="#6b7280"/>
  <rect x="100" y="140" width="12" height="12" fill="#6b7280"/>
  <rect x="120" y="140" width="12" height="12" fill="#6b7280"/>
  <rect x="140" y="140" width="12" height="12" fill="#6b7280"/>
  <rect x="160" y="140" width="12" height="12" fill="#6b7280"/>
  <rect x="180" y="140" width="12" height="12" fill="#6b7280"/>
  <rect x="200" y="140" width="12" height="12" fill="#6b7280"/>
  <rect x="220" y="140" width="12" height="12" fill="#6b7280"/>
  <rect x="240" y="140" width="12" height="12" fill="#6b7280"/>
  <rect x="260" y="140" width="12" height="12" fill="#6b7280"/>
  <rect x="280" y="140" width="12" height="12" fill="#6b7280"/>
  <rect x="300" y="140" width="12" height="12" fill="#6b7280"/>
  
  <!-- Fila 2 -->
  <rect x="80" y="160" width="12" height="12" fill="#6b7280"/>
  <rect x="100" y="160" width="12" height="12" fill="#6b7280"/>
  <rect x="120" y="160" width="12" height="12" fill="#6b7280"/>
  <rect x="140" y="160" width="12" height="12" fill="#6b7280"/>
  <rect x="160" y="160" width="12" height="12" fill="#6b7280"/>
  <rect x="180" y="160" width="12" height="12" fill="#6b7280"/>
  <rect x="200" y="160" width="12" height="12" fill="#6b7280"/>
  <rect x="220" y="160" width="12" height="12" fill="#6b7280"/>
  <rect x="240" y="160" width="12" height="12" fill="#6b7280"/>
  <rect x="260" y="160" width="12" height="12" fill="#6b7280"/>
  <rect x="280" y="160" width="12" height="12" fill="#6b7280"/>
  <rect x="300" y="160" width="12" height="12" fill="#6b7280"/>
  
  <!-- Fila 3 -->
  <rect x="80" y="180" width="12" height="12" fill="#6b7280"/>
  <rect x="100" y="180" width="12" height="12" fill="#6b7280"/>
  <rect x="120" y="180" width="12" height="12" fill="#6b7280"/>
  <rect x="140" y="180" width="12" height="12" fill="#6b7280"/>
  <rect x="160" y="180" width="12" height="12" fill="#6b7280"/>
  <rect x="180" y="180" width="12" height="12" fill="#6b7280"/>
  <rect x="200" y="180" width="12" height="12" fill="#6b7280"/>
  <rect x="220" y="180" width="12" height="12" fill="#6b7280"/>
  <rect x="240" y="180" width="12" height="12" fill="#6b7280"/>
  <rect x="260" y="180" width="12" height="12" fill="#6b7280"/>
  <rect x="280" y="180" width="12" height="12" fill="#6b7280"/>
  <rect x="300" y="180" width="12" height="12" fill="#6b7280"/>
  
  <!-- Pasillos -->
  <rect x="70" y="140" width="8" height="60" fill="#e7e5e4"/>
  <rect x="314" y="140" width="8" height="60" fill="#e7e5e4"/>
  
  <!-- Iluminación LED -->
  <rect x="0" y="20" width="400" height="4" fill="#fbbf24"/>
  <rect x="0" y="30" width="400" height="4" fill="#fbbf24"/>
  
  <!-- Texto -->
  <text x="200" y="240" text-anchor="middle" font-family="Arial, sans-serif" font-size="16" font-weight="bold" fill="#374151">
    Salón de Conferencias
  </text>
  <text x="200" y="260" text-anchor="middle" font-family="Arial, sans-serif" font-size="12" fill="#6b7280">
    Configuración tipo auditorio con proyector
  </text>
</svg>
